<svg width="320" height="39" viewBox="0 0 320 39" fill="none" xmlns="http://www.w3.org/2000/svg">
<path d="M62.0913 29C60.7465 29 59.566 28.7507 58.5499 28.2519C57.5488 27.7377 56.7046 27.0597 56.0172 26.2182C55.3448 25.361 54.8368 24.4104 54.4931 23.3662C54.1644 22.3065 54 21.2234 54 20.1169C54 19.0104 54.1644 17.9273 54.4931 16.8675C54.8368 15.8078 55.3448 14.8571 56.0172 14.0156C56.7046 13.1584 57.5488 12.4805 58.5499 11.9818C59.566 11.4831 60.7465 11.2338 62.0913 11.2338C63.2119 11.2338 64.1757 11.3818 64.9826 11.6779C65.7895 11.974 66.4619 12.3558 66.9998 12.8234C67.5377 13.2909 67.9636 13.7896 68.2774 14.3195C68.6061 14.8494 68.8527 15.3481 69.017 15.8156C69.1814 16.2831 69.286 16.6649 69.3308 16.961C69.3906 17.2571 69.4205 17.4052 69.4205 17.4052H66.3946C66.3946 17.4052 66.3648 17.2961 66.305 17.0779C66.2602 16.8597 66.1556 16.587 65.9912 16.2597C65.8418 15.9169 65.6102 15.5818 65.2964 15.2545C64.9826 14.9273 64.5642 14.6545 64.0412 14.4364C63.5332 14.2182 62.8981 14.1091 62.1361 14.1091C61.2993 14.1091 60.5671 14.2805 59.9396 14.6234C59.312 14.9506 58.789 15.4026 58.3706 15.9792C57.9522 16.5558 57.6385 17.2026 57.4293 17.9195C57.235 18.6364 57.1379 19.3688 57.1379 20.1169C57.1379 20.8649 57.235 21.5974 57.4293 22.3143C57.6385 23.0156 57.9522 23.6545 58.3706 24.2312C58.789 24.8078 59.312 25.2675 59.9396 25.6104C60.5671 25.9532 61.2993 26.1247 62.1361 26.1247C62.8981 26.1247 63.5332 26.0156 64.0412 25.7974C64.5642 25.5636 64.9826 25.2831 65.2964 24.9558C65.6102 24.6286 65.8418 24.3013 65.9912 23.974C66.1556 23.6468 66.2602 23.374 66.305 23.1558C66.3648 22.9221 66.3946 22.8052 66.3946 22.8052H69.4205C69.4205 22.8052 69.3906 22.9532 69.3308 23.2494C69.286 23.5455 69.1814 23.9351 69.017 24.4182C68.8527 24.8857 68.6061 25.3844 68.2774 25.9143C67.9636 26.4286 67.5377 26.9273 66.9998 27.4104C66.4619 27.8779 65.7895 28.2597 64.9826 28.5558C64.1757 28.8519 63.2119 29 62.0913 29Z" fill="#212121"/>
<path d="M72.05 28.7662L72.0724 11H75.031V28.7662H72.05Z" fill="#212121"/>
<path d="M83.6924 29C82.6763 29 81.7947 28.8208 81.0476 28.4623C80.3154 28.0883 79.7028 27.5974 79.2097 26.9896C78.7316 26.3662 78.3729 25.6727 78.1339 24.9091C77.8948 24.1455 77.7753 23.3662 77.7753 22.5714C77.7753 21.7766 77.8873 21.0052 78.1115 20.2571C78.3505 19.4935 78.7017 18.8 79.1649 18.1766C79.643 17.5532 80.2482 17.0623 80.9804 16.7039C81.7126 16.3299 82.5792 16.1429 83.5803 16.1429C84.6562 16.1429 85.605 16.3922 86.4269 16.8909C87.2487 17.3896 87.8912 18.1221 88.3544 19.0883C88.8176 20.039 89.0492 21.2234 89.0492 22.6416V23.4364H80.7787C80.8235 24.2779 81.0999 25.0104 81.608 25.6338C82.116 26.2416 82.8108 26.5455 83.6924 26.5455C84.2004 26.5455 84.6188 26.4597 84.9476 26.2883C85.2763 26.1169 85.5303 25.9221 85.7096 25.7039C85.8889 25.4701 86.0159 25.2753 86.0906 25.1195C86.1654 24.9481 86.2027 24.8623 86.2027 24.8623H88.9596C88.9596 24.8623 88.9222 25.0026 88.8475 25.2831C88.7728 25.5481 88.6308 25.8909 88.4216 26.3117C88.2274 26.7169 87.936 27.1299 87.5475 27.5507C87.159 27.9558 86.651 28.2987 86.0234 28.5792C85.3958 28.8597 84.6188 29 83.6924 29ZM80.7787 21.4026H86.1803C86.1355 20.4364 85.859 19.7195 85.351 19.2519C84.843 18.7844 84.2453 18.5507 83.5579 18.5507C82.7959 18.5507 82.1608 18.8078 81.6528 19.3221C81.1447 19.8208 80.8534 20.5143 80.7787 21.4026Z" fill="#212121"/>
<path d="M94.7403 28.7662L90.3249 16.3766H93.3507L96.3317 25.213L99.2678 16.3766H102.294L97.8558 28.7662H94.7403Z" fill="#212121"/>
<path d="M109.477 29C108.461 29 107.579 28.8208 106.832 28.4623C106.1 28.0883 105.487 27.5974 104.994 26.9896C104.516 26.3662 104.157 25.6727 103.918 24.9091C103.679 24.1455 103.559 23.3662 103.559 22.5714C103.559 21.7766 103.672 21.0052 103.896 20.2571C104.135 19.4935 104.486 18.8 104.949 18.1766C105.427 17.5532 106.032 17.0623 106.765 16.7039C107.497 16.3299 108.363 16.1429 109.365 16.1429C110.44 16.1429 111.389 16.3922 112.211 16.8909C113.033 17.3896 113.675 18.1221 114.139 19.0883C114.602 20.039 114.833 21.2234 114.833 22.6416V23.4364H106.563C106.608 24.2779 106.884 25.0104 107.392 25.6338C107.9 26.2416 108.595 26.5455 109.477 26.5455C109.985 26.5455 110.403 26.4597 110.732 26.2883C111.061 26.1169 111.315 25.9221 111.494 25.7039C111.673 25.4701 111.8 25.2753 111.875 25.1195C111.95 24.9481 111.987 24.8623 111.987 24.8623H114.744C114.744 24.8623 114.706 25.0026 114.632 25.2831C114.557 25.5481 114.415 25.8909 114.206 26.3117C114.012 26.7169 113.72 27.1299 113.332 27.5507C112.943 27.9558 112.435 28.2987 111.808 28.5792C111.18 28.8597 110.403 29 109.477 29ZM106.563 21.4026H111.965C111.92 20.4364 111.643 19.7195 111.135 19.2519C110.627 18.7844 110.03 18.5507 109.342 18.5507C108.58 18.5507 107.945 18.8078 107.437 19.3221C106.929 19.8208 106.638 20.5143 106.563 21.4026Z" fill="#212121"/>
<path d="M117.441 28.7662V16.3766H120.399V18.0831H120.511C120.721 17.6 121.064 17.1558 121.542 16.7507C122.021 16.3455 122.738 16.1429 123.694 16.1429C123.993 16.1429 124.24 16.1662 124.434 16.213C124.628 16.2442 124.725 16.2597 124.725 16.2597V19.2753C124.725 19.2753 124.613 19.2597 124.389 19.2286C124.18 19.1974 123.918 19.1818 123.604 19.1818C122.559 19.1818 121.767 19.4857 121.229 20.0935C120.691 20.7013 120.422 21.6831 120.422 23.039V28.7662H117.441Z" fill="#212121"/>
<path d="M132.155 28.7662V11.4675H135.203V26.0078H143.451V28.7662H132.155Z" fill="#212121"/>
<path d="M150.567 16.1429C151.329 16.1429 151.957 16.2753 152.45 16.5403C152.943 16.7896 153.332 17.0701 153.616 17.3818C153.899 17.6779 154.094 17.9195 154.198 18.1065H154.333V16.3766H157.314V28.7662H154.333V27.0364H154.198C154.094 27.2234 153.899 27.4727 153.616 27.7844C153.332 28.0961 152.943 28.3766 152.45 28.626C151.957 28.8753 151.329 29 150.567 29C149.686 29 148.916 28.8208 148.259 28.4623C147.601 28.0883 147.048 27.5974 146.6 26.9896C146.167 26.3662 145.838 25.6727 145.614 24.9091C145.405 24.1455 145.3 23.3662 145.3 22.5714C145.3 21.7766 145.405 20.9974 145.614 20.2338C145.838 19.4701 146.167 18.7844 146.6 18.1766C147.048 17.5532 147.601 17.0623 148.259 16.7039C148.916 16.3299 149.686 16.1429 150.567 16.1429ZM151.352 18.6909C150.679 18.6909 150.112 18.8857 149.648 19.2753C149.2 19.6494 148.864 20.1325 148.64 20.7247C148.416 21.3169 148.304 21.9325 148.304 22.5714C148.304 23.2104 148.416 23.826 148.64 24.4182C148.864 25.0104 149.2 25.5013 149.648 25.8909C150.112 26.2649 150.679 26.4519 151.352 26.4519C152.024 26.4519 152.585 26.2649 153.033 25.8909C153.481 25.5013 153.817 25.0104 154.041 24.4182C154.266 23.826 154.378 23.2104 154.378 22.5714C154.378 21.9325 154.266 21.3169 154.041 20.7247C153.817 20.1325 153.481 19.6494 153.033 19.2753C152.585 18.8857 152.024 18.6909 151.352 18.6909Z" fill="#212121"/>
<path d="M163.954 29C162.714 29 161.772 28.6026 161.13 27.8078C160.502 27.013 160.188 25.9922 160.188 24.7455V16.3766H163.147V24.2312C163.147 24.9013 163.319 25.439 163.662 25.8442C164.006 26.2338 164.492 26.4286 165.119 26.4286C165.672 26.4286 166.12 26.2805 166.464 25.9844C166.808 25.6883 167.054 25.3065 167.204 24.839C167.368 24.3714 167.45 23.8883 167.45 23.3896V16.3766H170.431V28.7662H167.45V26.9896H167.316C167.166 27.2701 166.95 27.5662 166.666 27.8779C166.397 28.1896 166.038 28.4545 165.59 28.6727C165.157 28.8909 164.611 29 163.954 29Z" fill="#212121"/>
<path d="M173.212 28.7662V16.3766H176.193V18.1532H176.327C176.447 17.9351 176.634 17.6701 176.888 17.3584C177.142 17.0312 177.493 16.7507 177.941 16.5169C178.389 16.2675 178.957 16.1429 179.644 16.1429C180.556 16.1429 181.303 16.361 181.886 16.7974C182.483 17.2182 182.924 17.7792 183.208 18.4805C183.507 19.1818 183.656 19.9377 183.656 20.7481V28.7662H180.675V21.1688C180.675 20.4987 180.496 19.9221 180.138 19.439C179.779 18.9558 179.241 18.7143 178.524 18.7143C177.971 18.7143 177.523 18.8623 177.179 19.1584C176.835 19.439 176.581 19.8052 176.417 20.2571C176.267 20.7091 176.193 21.1844 176.193 21.6831V28.7662H173.212Z" fill="#212121"/>
<path d="M192.239 29C191.223 29 190.334 28.8208 189.572 28.4623C188.81 28.0883 188.175 27.5974 187.667 26.9896C187.159 26.3662 186.778 25.6727 186.524 24.9091C186.285 24.1455 186.165 23.3662 186.165 22.5714C186.165 21.7766 186.285 20.9974 186.524 20.2338C186.778 19.4701 187.152 18.7844 187.645 18.1766C188.153 17.5532 188.788 17.0623 189.55 16.7039C190.312 16.3299 191.208 16.1429 192.239 16.1429C193.255 16.1429 194.1 16.2987 194.772 16.6104C195.445 16.9221 195.975 17.3117 196.363 17.7792C196.767 18.2468 197.066 18.7143 197.26 19.1818C197.454 19.6338 197.581 20.0156 197.641 20.3273C197.701 20.639 197.731 20.7948 197.731 20.7948H194.929C194.929 20.7948 194.899 20.6935 194.839 20.4909C194.78 20.2727 194.66 20.0234 194.481 19.7429C194.301 19.4623 194.032 19.213 193.674 18.9948C193.33 18.7766 192.867 18.6675 192.284 18.6675C191.597 18.6675 191.014 18.8545 190.536 19.2286C190.073 19.587 189.722 20.0623 189.483 20.6545C189.243 21.2468 189.124 21.8857 189.124 22.5714C189.124 23.2571 189.243 23.8961 189.483 24.4883C189.722 25.0805 190.073 25.5636 190.536 25.9377C191.014 26.2961 191.597 26.4753 192.284 26.4753C192.867 26.4753 193.33 26.3662 193.674 26.1481C194.032 25.9299 194.301 25.6805 194.481 25.4C194.66 25.1195 194.78 24.8779 194.839 24.6753C194.899 24.4571 194.929 24.3481 194.929 24.3481H197.731C197.731 24.3481 197.701 24.5039 197.641 24.8156C197.581 25.1273 197.454 25.5169 197.26 25.9844C197.066 26.4364 196.767 26.8961 196.363 27.3636C195.975 27.8312 195.445 28.2208 194.772 28.5325C194.1 28.8442 193.255 29 192.239 29Z" fill="#212121"/>
<path d="M200.555 28.7662V11H203.536V18.1532H203.671C203.79 17.9351 203.977 17.6701 204.231 17.3584C204.485 17.0312 204.836 16.7507 205.285 16.5169C205.733 16.2675 206.301 16.1429 206.988 16.1429C207.899 16.1429 208.647 16.361 209.229 16.7974C209.827 17.2182 210.268 17.7792 210.552 18.4805C210.851 19.1818 211 19.9377 211 20.7481V28.7662H208.019V21.1688C208.019 20.4987 207.84 19.9221 207.481 19.439C207.122 18.9558 206.585 18.7143 205.867 18.7143C205.314 18.7143 204.866 18.8623 204.523 19.1584C204.179 19.439 203.925 19.8052 203.76 20.2571C203.611 20.7091 203.536 21.1844 203.536 21.6831V28.7662H200.555Z" fill="#212121"/>
<path fill-rule="evenodd" clip-rule="evenodd" d="M38.2516 11.8179L24.7106 4L11 11.9158V27.0253L17.5712 23.3583V14.5242L24.834 10.4181L26.6624 11.668L19.5921 15.6843V22.2306L38.2516 11.8179ZM18.4032 24.7664L26.1598 29.1725L33.2354 25.0714V22.8453L26.1598 26.8645L20.4519 23.6222L38.4211 13.5865V27.7474L24.7106 35.6632L12.0156 28.3338L18.4032 24.7664Z" fill="#212121"/>
</svg>
