<svg width="215" height="32" viewBox="0 0 215 32" fill="none" xmlns="http://www.w3.org/2000/svg">
<path fill-rule="evenodd" clip-rule="evenodd" d="M29.7516 7.81794L16.2106 0L2.5 7.9158V23.0253L9.07125 19.3583V10.5242L16.334 6.41814L18.1624 7.66799L11.0921 11.6843V18.2306L29.7516 7.81794ZM9.90321 20.7664L17.6598 25.1725L24.7354 21.0714V18.8453L17.6598 22.8645L11.9519 19.6222L29.9211 9.58645V23.7474L16.2106 31.6632L3.51564 24.3338L9.90321 20.7664Z" fill="#E8AA42"/>
<path d="M49.3934 23.2C48.1934 23.2 47.1401 22.9867 46.2334 22.56C45.3401 22.12 44.5868 21.54 43.9734 20.82C43.3734 20.0867 42.9201 19.2733 42.6134 18.38C42.3201 17.4733 42.1734 16.5467 42.1734 15.6C42.1734 14.6533 42.3201 13.7267 42.6134 12.82C42.9201 11.9133 43.3734 11.1 43.9734 10.38C44.5868 9.64667 45.3401 9.06667 46.2334 8.64C47.1401 8.21333 48.1934 8 49.3934 8C50.3934 8 51.2534 8.12667 51.9734 8.38C52.6934 8.63333 53.2934 8.96 53.7734 9.36C54.2534 9.76 54.6334 10.1867 54.9134 10.64C55.2068 11.0933 55.4268 11.52 55.5734 11.92C55.7201 12.32 55.8134 12.6467 55.8534 12.9C55.9068 13.1533 55.9334 13.28 55.9334 13.28H53.2334C53.2334 13.28 53.2068 13.1867 53.1534 13C53.1134 12.8133 53.0201 12.58 52.8734 12.3C52.7401 12.0067 52.5334 11.72 52.2534 11.44C51.9734 11.16 51.6001 10.9267 51.1334 10.74C50.6801 10.5533 50.1134 10.46 49.4334 10.46C48.6868 10.46 48.0334 10.6067 47.4734 10.9C46.9134 11.18 46.4468 11.5667 46.0734 12.06C45.7001 12.5533 45.4201 13.1067 45.2334 13.72C45.0601 14.3333 44.9734 14.96 44.9734 15.6C44.9734 16.24 45.0601 16.8667 45.2334 17.48C45.4201 18.08 45.7001 18.6267 46.0734 19.12C46.4468 19.6133 46.9134 20.0067 47.4734 20.3C48.0334 20.5933 48.6868 20.74 49.4334 20.74C50.1134 20.74 50.6801 20.6467 51.1334 20.46C51.6001 20.26 51.9734 20.02 52.2534 19.74C52.5334 19.46 52.7401 19.18 52.8734 18.9C53.0201 18.62 53.1134 18.3867 53.1534 18.2C53.2068 18 53.2334 17.9 53.2334 17.9H55.9334C55.9334 17.9 55.9068 18.0267 55.8534 18.28C55.8134 18.5333 55.7201 18.8667 55.5734 19.28C55.4268 19.68 55.2068 20.1067 54.9134 20.56C54.6334 21 54.2534 21.4267 53.7734 21.84C53.2934 22.24 52.6934 22.5667 51.9734 22.82C51.2534 23.0733 50.3934 23.2 49.3934 23.2ZM58.2798 23L58.2998 7.8H60.9398V23H58.2798ZM68.6686 23.2C67.7619 23.2 66.9753 23.0467 66.3086 22.74C65.6553 22.42 65.1086 22 64.6686 21.48C64.2419 20.9467 63.9219 20.3533 63.7086 19.7C63.4953 19.0467 63.3886 18.38 63.3886 17.7C63.3886 17.02 63.4886 16.36 63.6886 15.72C63.9019 15.0667 64.2153 14.4733 64.6286 13.94C65.0553 13.4067 65.5953 12.9867 66.2486 12.68C66.9019 12.36 67.6753 12.2 68.5686 12.2C69.5286 12.2 70.3753 12.4133 71.1086 12.84C71.8419 13.2667 72.4153 13.8933 72.8286 14.72C73.2419 15.5333 73.4486 16.5467 73.4486 17.76V18.44H66.0686C66.1086 19.16 66.3553 19.7867 66.8086 20.32C67.2619 20.84 67.8819 21.1 68.6686 21.1C69.1219 21.1 69.4953 21.0267 69.7886 20.88C70.0819 20.7333 70.3086 20.5667 70.4686 20.38C70.6286 20.18 70.7419 20.0133 70.8086 19.88C70.8753 19.7333 70.9086 19.66 70.9086 19.66H73.3686C73.3686 19.66 73.3353 19.78 73.2686 20.02C73.2019 20.2467 73.0753 20.54 72.8886 20.9C72.7153 21.2467 72.4553 21.6 72.1086 21.96C71.7619 22.3067 71.3086 22.6 70.7486 22.84C70.1886 23.08 69.4953 23.2 68.6686 23.2ZM66.0686 16.7H70.8886C70.8486 15.8733 70.6019 15.26 70.1486 14.86C69.6953 14.46 69.1619 14.26 68.5486 14.26C67.8686 14.26 67.3019 14.48 66.8486 14.92C66.3953 15.3467 66.1353 15.94 66.0686 16.7ZM78.5269 23L74.5869 12.4H77.2869L79.9469 19.96L82.5669 12.4H85.2669L81.3069 23H78.5269ZM91.6764 23.2C90.7697 23.2 89.9831 23.0467 89.3164 22.74C88.6631 22.42 88.1164 22 87.6764 21.48C87.2497 20.9467 86.9297 20.3533 86.7164 19.7C86.5031 19.0467 86.3964 18.38 86.3964 17.7C86.3964 17.02 86.4964 16.36 86.6964 15.72C86.9097 15.0667 87.2231 14.4733 87.6364 13.94C88.0631 13.4067 88.6031 12.9867 89.2564 12.68C89.9097 12.36 90.6831 12.2 91.5764 12.2C92.5364 12.2 93.3831 12.4133 94.1164 12.84C94.8497 13.2667 95.4231 13.8933 95.8364 14.72C96.2497 15.5333 96.4564 16.5467 96.4564 17.76V18.44H89.0764C89.1164 19.16 89.3631 19.7867 89.8164 20.32C90.2697 20.84 90.8897 21.1 91.6764 21.1C92.1297 21.1 92.5031 21.0267 92.7964 20.88C93.0897 20.7333 93.3164 20.5667 93.4764 20.38C93.6364 20.18 93.7497 20.0133 93.8164 19.88C93.8831 19.7333 93.9164 19.66 93.9164 19.66H96.3764C96.3764 19.66 96.3431 19.78 96.2764 20.02C96.2097 20.2467 96.0831 20.54 95.8964 20.9C95.7231 21.2467 95.4631 21.6 95.1164 21.96C94.7697 22.3067 94.3164 22.6 93.7564 22.84C93.1964 23.08 92.5031 23.2 91.6764 23.2ZM89.0764 16.7H93.8964C93.8564 15.8733 93.6097 15.26 93.1564 14.86C92.7031 14.46 92.1697 14.26 91.5564 14.26C90.8764 14.26 90.3097 14.48 89.8564 14.92C89.4031 15.3467 89.1431 15.94 89.0764 16.7ZM98.783 23V12.4H101.423V13.86H101.523C101.71 13.4467 102.016 13.0667 102.443 12.72C102.87 12.3733 103.51 12.2 104.363 12.2C104.63 12.2 104.85 12.22 105.023 12.26C105.196 12.2867 105.283 12.3 105.283 12.3V14.88C105.283 14.88 105.183 14.8667 104.983 14.84C104.796 14.8133 104.563 14.8 104.283 14.8C103.35 14.8 102.643 15.06 102.163 15.58C101.683 16.1 101.443 16.94 101.443 18.1V23H98.783ZM111.913 23V8.2H114.633V20.64H121.993V23H111.913ZM128.343 12.2C129.023 12.2 129.583 12.3133 130.023 12.54C130.463 12.7533 130.809 12.9933 131.063 13.26C131.316 13.5133 131.489 13.72 131.583 13.88H131.703V12.4H134.363V23H131.703V21.52H131.583C131.489 21.68 131.316 21.8933 131.063 22.16C130.809 22.4267 130.463 22.6667 130.023 22.88C129.583 23.0933 129.023 23.2 128.343 23.2C127.556 23.2 126.869 23.0467 126.283 22.74C125.696 22.42 125.203 22 124.803 21.48C124.416 20.9467 124.123 20.3533 123.923 19.7C123.736 19.0467 123.643 18.38 123.643 17.7C123.643 17.02 123.736 16.3533 123.923 15.7C124.123 15.0467 124.416 14.46 124.803 13.94C125.203 13.4067 125.696 12.9867 126.283 12.68C126.869 12.36 127.556 12.2 128.343 12.2ZM129.043 14.38C128.443 14.38 127.936 14.5467 127.523 14.88C127.123 15.2 126.823 15.6133 126.623 16.12C126.423 16.6267 126.323 17.1533 126.323 17.7C126.323 18.2467 126.423 18.7733 126.623 19.28C126.823 19.7867 127.123 20.2067 127.523 20.54C127.936 20.86 128.443 21.02 129.043 21.02C129.643 21.02 130.143 20.86 130.543 20.54C130.943 20.2067 131.243 19.7867 131.443 19.28C131.643 18.7733 131.743 18.2467 131.743 17.7C131.743 17.1533 131.643 16.6267 131.443 16.12C131.243 15.6133 130.943 15.2 130.543 14.88C130.143 14.5467 129.643 14.38 129.043 14.38ZM140.288 23.2C139.181 23.2 138.341 22.86 137.768 22.18C137.208 21.5 136.928 20.6267 136.928 19.56V12.4H139.568V19.12C139.568 19.6933 139.721 20.1533 140.028 20.5C140.334 20.8333 140.768 21 141.328 21C141.821 21 142.221 20.8733 142.528 20.62C142.834 20.3667 143.054 20.04 143.188 19.64C143.334 19.24 143.408 18.8267 143.408 18.4V12.4H146.068V23H143.408V21.48H143.288C143.154 21.72 142.961 21.9733 142.708 22.24C142.468 22.5067 142.148 22.7333 141.748 22.92C141.361 23.1067 140.874 23.2 140.288 23.2ZM148.549 23V12.4H151.209V13.92H151.329C151.435 13.7333 151.602 13.5067 151.829 13.24C152.055 12.96 152.369 12.72 152.769 12.52C153.169 12.3067 153.675 12.2 154.289 12.2C155.102 12.2 155.769 12.3867 156.289 12.76C156.822 13.12 157.215 13.6 157.469 14.2C157.735 14.8 157.869 15.4467 157.869 16.14V23H155.209V16.5C155.209 15.9267 155.049 15.4333 154.729 15.02C154.409 14.6067 153.929 14.4 153.289 14.4C152.795 14.4 152.395 14.5267 152.089 14.78C151.782 15.02 151.555 15.3333 151.409 15.72C151.275 16.1067 151.209 16.5133 151.209 16.94V23H148.549ZM165.527 23.2C164.621 23.2 163.827 23.0467 163.147 22.74C162.467 22.42 161.901 22 161.447 21.48C160.994 20.9467 160.654 20.3533 160.427 19.7C160.214 19.0467 160.107 18.38 160.107 17.7C160.107 17.02 160.214 16.3533 160.427 15.7C160.654 15.0467 160.987 14.46 161.427 13.94C161.881 13.4067 162.447 12.9867 163.127 12.68C163.807 12.36 164.607 12.2 165.527 12.2C166.434 12.2 167.187 12.3333 167.787 12.6C168.387 12.8667 168.861 13.2 169.207 13.6C169.567 14 169.834 14.4 170.007 14.8C170.181 15.1867 170.294 15.5133 170.347 15.78C170.401 16.0467 170.427 16.18 170.427 16.18H167.927C167.927 16.18 167.901 16.0933 167.847 15.92C167.794 15.7333 167.687 15.52 167.527 15.28C167.367 15.04 167.127 14.8267 166.807 14.64C166.501 14.4533 166.087 14.36 165.567 14.36C164.954 14.36 164.434 14.52 164.007 14.84C163.594 15.1467 163.281 15.5533 163.067 16.06C162.854 16.5667 162.747 17.1133 162.747 17.7C162.747 18.2867 162.854 18.8333 163.067 19.34C163.281 19.8467 163.594 20.26 164.007 20.58C164.434 20.8867 164.954 21.04 165.567 21.04C166.087 21.04 166.501 20.9467 166.807 20.76C167.127 20.5733 167.367 20.36 167.527 20.12C167.687 19.88 167.794 19.6733 167.847 19.5C167.901 19.3133 167.927 19.22 167.927 19.22H170.427C170.427 19.22 170.401 19.3533 170.347 19.62C170.294 19.8867 170.181 20.22 170.007 20.62C169.834 21.0067 169.567 21.4 169.207 21.8C168.861 22.2 168.387 22.5333 167.787 22.8C167.187 23.0667 166.434 23.2 165.527 23.2ZM172.948 23V7.8H175.608V13.92H175.728C175.834 13.7333 176.001 13.5067 176.228 13.24C176.454 12.96 176.768 12.72 177.168 12.52C177.568 12.3067 178.074 12.2 178.688 12.2C179.501 12.2 180.168 12.3867 180.688 12.76C181.221 13.12 181.614 13.6 181.868 14.2C182.134 14.8 182.268 15.4467 182.268 16.14V23H179.608V16.5C179.608 15.9267 179.448 15.4333 179.128 15.02C178.808 14.6067 178.328 14.4 177.688 14.4C177.194 14.4 176.794 14.5267 176.488 14.78C176.181 15.02 175.954 15.3333 175.808 15.72C175.674 16.1067 175.608 16.5133 175.608 16.94V23H172.948Z" fill="#E8AA42"/>
</svg>
