<svg width="24" height="24" viewBox="0 0 24 24" fill="none" xmlns="http://www.w3.org/2000/svg">
<g clip-path="url(#clip0_785_26427)">
<path d="M22.6 0.727051L13.5938 7.79491L15.2685 3.62959L22.6 0.727051Z" fill="#E17726" stroke="#E17726" stroke-width="0.25" stroke-linecap="round" stroke-linejoin="round"/>
<path d="M1.82617 0.727051L10.7522 7.86087L9.15766 3.62958L1.82617 0.727051Z" fill="#E27625" stroke="#E27625" stroke-width="0.25" stroke-linecap="round" stroke-linejoin="round"/>
<path d="M19.3572 17.1152L16.9609 20.9979L22.0921 22.4963L23.562 17.2001L19.3572 17.1152Z" fill="#E27625" stroke="#E27625" stroke-width="0.25" stroke-linecap="round" stroke-linejoin="round"/>
<path d="M0.873047 17.2001L2.33399 22.4963L7.45624 20.9979L5.06882 17.1152L0.873047 17.2001Z" fill="#E27625" stroke="#E27625" stroke-width="0.25" stroke-linecap="round" stroke-linejoin="round"/>
<path d="M7.18017 10.5562L5.75488 12.8368L10.8326 13.0818L10.6633 7.28613L7.18017 10.5562Z" fill="#E27625" stroke="#E27625" stroke-width="0.25" stroke-linecap="round" stroke-linejoin="round"/>
<path d="M17.2461 10.5562L13.7096 7.22021L13.5938 13.0818L18.6714 12.8368L17.2461 10.5562Z" fill="#E27625" stroke="#E27625" stroke-width="0.25" stroke-linecap="round" stroke-linejoin="round"/>
<path d="M7.45605 20.9979L10.5294 19.4241L7.88367 17.2378L7.45605 20.9979Z" fill="#E27625" stroke="#E27625" stroke-width="0.25" stroke-linecap="round" stroke-linejoin="round"/>
<path d="M13.8965 19.4241L16.9609 20.9979L16.5422 17.2378L13.8965 19.4241Z" fill="#E27625" stroke="#E27625" stroke-width="0.25" stroke-linecap="round" stroke-linejoin="round"/>
<path d="M16.9609 20.9981L13.8965 19.4243L14.1459 21.5352L14.1191 22.4305L16.9609 20.9981Z" fill="#D5BFB2" stroke="#D5BFB2" stroke-width="0.25" stroke-linecap="round" stroke-linejoin="round"/>
<path d="M7.45605 20.9981L10.3067 22.4305L10.2889 21.5352L10.5294 19.4243L7.45605 20.9981Z" fill="#D5BFB2" stroke="#D5BFB2" stroke-width="0.25" stroke-linecap="round" stroke-linejoin="round"/>
<path d="M10.3603 15.8433L7.8125 15.0517L9.61195 14.1753L10.3603 15.8433Z" fill="#233447" stroke="#233447" stroke-width="0.25" stroke-linecap="round" stroke-linejoin="round"/>
<path d="M14.0654 15.8433L14.8138 14.1753L16.6221 15.0517L14.0654 15.8433Z" fill="#233447" stroke="#233447" stroke-width="0.25" stroke-linecap="round" stroke-linejoin="round"/>
<path d="M7.45574 20.9979L7.90118 17.1152L5.06836 17.2001L7.45574 20.9979Z" fill="#CC6228" stroke="#CC6228" stroke-width="0.25" stroke-linecap="round" stroke-linejoin="round"/>
<path d="M16.5244 17.1152L16.9609 20.9979L19.3572 17.2001L16.5244 17.1152Z" fill="#CC6228" stroke="#CC6228" stroke-width="0.25" stroke-linecap="round" stroke-linejoin="round"/>
<path d="M18.6714 12.8369L13.5938 13.0819L14.0659 15.8432L14.8142 14.1751L16.6226 15.0515L18.6714 12.8369Z" fill="#CC6228" stroke="#CC6228" stroke-width="0.25" stroke-linecap="round" stroke-linejoin="round"/>
<path d="M7.81268 15.0515L9.61213 14.1751L10.3604 15.8432L10.8326 13.0819L5.75488 12.8369L7.81268 15.0515Z" fill="#CC6228" stroke="#CC6228" stroke-width="0.25" stroke-linecap="round" stroke-linejoin="round"/>
<path d="M5.75488 12.8369L7.88396 17.2379L7.81265 15.0515L5.75488 12.8369Z" fill="#E27525" stroke="#E27525" stroke-width="0.25" stroke-linecap="round" stroke-linejoin="round"/>
<path d="M16.6222 15.0515L16.542 17.2379L18.6711 12.8369L16.6222 15.0515Z" fill="#E27525" stroke="#E27525" stroke-width="0.25" stroke-linecap="round" stroke-linejoin="round"/>
<path d="M10.8325 13.082L10.3604 15.8433L10.9572 19.1039L11.0908 14.8066L10.8325 13.082Z" fill="#E27525" stroke="#E27525" stroke-width="0.25" stroke-linecap="round" stroke-linejoin="round"/>
<path d="M13.5942 13.082L13.3447 14.7972L13.4695 19.1039L14.0663 15.8433L13.5942 13.082Z" fill="#E27525" stroke="#E27525" stroke-width="0.25" stroke-linecap="round" stroke-linejoin="round"/>
<path d="M14.0656 15.8429L13.4688 19.1035L13.8964 19.4239L16.5421 17.2376L16.6223 15.0513L14.0656 15.8429Z" fill="#F5841F" stroke="#F5841F" stroke-width="0.25" stroke-linecap="round" stroke-linejoin="round"/>
<path d="M7.8125 15.0513L7.88381 17.2376L10.5295 19.4239L10.9571 19.1035L10.3603 15.8429L7.8125 15.0513Z" fill="#F5841F" stroke="#F5841F" stroke-width="0.25" stroke-linecap="round" stroke-linejoin="round"/>
<path d="M14.1194 22.4305L14.1461 21.5352L13.9145 21.3279H10.5116L10.2889 21.5352L10.3067 22.4305L7.45605 20.998L8.45377 21.865L10.4759 23.3446H13.9412L15.9723 21.865L16.9611 20.998L14.1194 22.4305Z" fill="#C0AC9D" stroke="#C0AC9D" stroke-width="0.25" stroke-linecap="round" stroke-linejoin="round"/>
<path d="M13.8969 19.4239L13.4693 19.1035H10.9572L10.5296 19.4239L10.2891 21.5349L10.5118 21.3275H13.9147L14.1463 21.5349L13.8969 19.4239Z" fill="#161616" stroke="#161616" stroke-width="0.25" stroke-linecap="round" stroke-linejoin="round"/>
<path d="M22.9828 8.25665L23.7401 4.35522L22.5998 0.727051L13.8965 7.55934L17.2459 10.5561L21.9762 12.0168L23.0185 10.7257L22.5642 10.377L23.2857 9.6797L22.7334 9.22734L23.455 8.64305L22.9828 8.25665Z" fill="#763E1A" stroke="#763E1A" stroke-width="0.25" stroke-linecap="round" stroke-linejoin="round"/>
<path d="M0.685547 4.35522L1.45165 8.25665L0.961705 8.64305L1.69218 9.22734L1.13987 9.6797L1.86143 10.377L1.40711 10.7257L2.44938 12.0168L7.17967 10.5561L10.5291 7.55934L1.8258 0.727051L0.685547 4.35522Z" fill="#763E1A" stroke="#763E1A" stroke-width="0.25" stroke-linecap="round" stroke-linejoin="round"/>
<path d="M21.976 12.0168L17.2457 10.5562L18.6711 12.8367L16.542 17.2376L19.357 17.1999H23.5617L21.976 12.0168Z" fill="#F5841F" stroke="#F5841F" stroke-width="0.25" stroke-linecap="round" stroke-linejoin="round"/>
<path d="M7.18003 10.5562L2.4498 12.0168L0.873047 17.1999H5.06882L7.88378 17.2376L5.75475 12.8367L7.18003 10.5562Z" fill="#F5841F" stroke="#F5841F" stroke-width="0.25" stroke-linecap="round" stroke-linejoin="round"/>
<path d="M13.5935 13.082L13.8964 7.55958L15.2682 3.62988H9.15723L10.5291 7.55958L10.8319 13.082L10.9478 14.8159L10.9567 19.1038H13.4688L13.4777 14.8159L13.5935 13.082Z" fill="#F5841F" stroke="#F5841F" stroke-width="0.25" stroke-linecap="round" stroke-linejoin="round"/>
</g>
<defs>
<clipPath id="clip0_785_26427">
<rect width="24" height="24" fill="white"/>
</clipPath>
</defs>
</svg>
