<svg width="24" height="24" viewBox="0 0 24 24" fill="none" xmlns="http://www.w3.org/2000/svg">
<g clip-path="url(#clip0_785_26470)">
<path d="M4.91641 7.87315C8.82972 4.04033 15.1765 4.04033 19.0898 7.87315L19.5604 8.33135C19.7585 8.5233 19.7585 8.8329 19.5604 9.02485L17.9505 10.6038C17.8514 10.6967 17.6966 10.6967 17.5975 10.6038L16.9474 9.96603C14.2167 7.2911 9.78947 7.2911 7.05882 9.96603L6.36533 10.6471C6.26625 10.74 6.11146 10.74 6.01238 10.6471L4.39629 9.07439C4.19814 8.88244 4.19814 8.57284 4.39629 8.38089L4.91641 7.87315ZM22.4211 11.1363L23.8576 12.5419C24.0557 12.7338 24.0557 13.0434 23.8576 13.2354L17.387 19.5697C17.1889 19.7617 16.8731 19.7617 16.6811 19.5697L12.0929 15.0744C12.0433 15.0248 11.9628 15.0248 11.9133 15.0744L7.32508 19.5697C7.12694 19.7617 6.81115 19.7617 6.6192 19.5697L0.148607 13.2354C-0.0495356 13.0434 -0.0495356 12.7338 0.148607 12.5419L1.58514 11.1363C1.78328 10.9444 2.09907 10.9444 2.29102 11.1363L6.87926 15.6317C6.92879 15.6812 7.00929 15.6812 7.05882 15.6317L11.6471 11.1363C11.8452 10.9444 12.161 10.9444 12.3529 11.1363L16.9412 15.6317C16.9907 15.6812 17.0712 15.6812 17.1207 15.6317L21.709 11.1363C21.9071 10.9444 22.2229 10.9444 22.4211 11.1363Z" fill="#3B99FC"/>
</g>
<defs>
<clipPath id="clip0_785_26470">
<rect width="24" height="14.7121" fill="white" transform="translate(0 5)"/>
</clipPath>
</defs>
</svg>
