<svg width="32" height="32" viewBox="0 0 32 32" fill="none" xmlns="http://www.w3.org/2000/svg">
<path d="M16.4 23.331V27.2352" stroke="#212121" stroke-linecap="round" stroke-linejoin="round"/>
<path d="M16.4 3.96486V7.59843" stroke="#212121" stroke-linecap="round" stroke-linejoin="round"/>
<path d="M12.7185 21.3427C13.1799 21.885 13.7606 22.3155 14.4161 22.6011C15.0716 22.8867 15.7845 23.0198 16.5 22.9903C17.5936 23.0641 18.6736 22.7152 19.5128 22.0169C20.352 21.3185 20.8851 20.3252 21 19.2458C20.8851 18.1663 20.352 17.173 19.5128 16.4747C18.6736 15.7764 17.5936 15.4274 16.5 15.5013C15.4064 15.5751 14.3264 15.2262 13.4872 14.5278C12.648 13.8295 12.1149 12.8362 12 11.7568C12.1057 10.6735 12.6362 9.67451 13.4776 8.97436C14.319 8.27421 15.4042 7.92878 16.5 8.01225C17.2029 7.96967 17.9066 8.08191 18.5605 8.3409C19.2144 8.59989 19.8022 8.99919 20.2815 9.51006" stroke="#212121" stroke-width="1.5" stroke-linecap="round" stroke-linejoin="round"/>
</svg>
