<svg width="147" height="48" viewBox="0 0 147 48" fill="none" xmlns="http://www.w3.org/2000/svg">
<g style="mix-blend-mode:luminosity">
<path d="M13.7775 22.3183C14.5998 19.25 17.7537 16.0961 20.822 15.2739L39.9509 10.1475C43.0192 9.32522 44.8399 11.146 44.0177 14.2142L38.8913 33.3432C38.069 36.4115 34.9151 39.5654 31.8469 40.3877L12.7179 45.514C9.64963 46.3363 7.82888 44.5155 8.65115 41.4473L13.7775 22.3183Z" fill="#9E77ED"/>
<path d="M6.10882 14.6493C6.93108 11.5811 10.085 8.42717 13.1533 7.60491L32.2822 2.47854C35.3505 1.65628 37.1713 3.47702 36.349 6.54529L31.2226 25.6743C30.4004 28.7425 27.2465 31.8964 24.1782 32.7187L5.0492 37.8451C1.98093 38.6673 0.160184 36.8466 0.982448 33.7783L6.10882 14.6493Z" fill="#6941C6"/>
<path d="M61.792 31.424H68.372V34H58.6V14.54H61.792V31.424Z" fill="#101828"/>
<path d="M69.9774 26.216C69.9774 24.6667 70.2947 23.2947 70.9294 22.1C71.5827 20.9054 72.46 19.9814 73.5614 19.328C74.6814 18.656 75.9134 18.32 77.2574 18.32C78.4707 18.32 79.5254 18.5627 80.4214 19.048C81.336 19.5147 82.064 20.1027 82.6054 20.812V18.572H85.8254V34H82.6054V31.704C82.064 32.432 81.3267 33.0387 80.3934 33.524C79.46 34.0094 78.396 34.252 77.2014 34.252C75.876 34.252 74.6627 33.916 73.5614 33.244C72.46 32.5534 71.5827 31.6014 70.9294 30.388C70.2947 29.156 69.9774 27.7654 69.9774 26.216ZM82.6054 26.272C82.6054 25.208 82.3814 24.284 81.9334 23.5C81.504 22.716 80.9347 22.1187 80.2254 21.708C79.516 21.2974 78.7507 21.092 77.9294 21.092C77.108 21.092 76.3427 21.2974 75.6334 21.708C74.924 22.1 74.3454 22.688 73.8974 23.472C73.468 24.2374 73.2534 25.152 73.2534 26.216C73.2534 27.28 73.468 28.2134 73.8974 29.016C74.3454 29.8187 74.924 30.4347 75.6334 30.864C76.3614 31.2747 77.1267 31.48 77.9294 31.48C78.7507 31.48 79.516 31.2747 80.2254 30.864C80.9347 30.4534 81.504 29.856 81.9334 29.072C82.3814 28.2694 82.6054 27.336 82.6054 26.272Z" fill="#101828"/>
<path d="M103.906 18.572L94.4419 41.252H91.1379L94.2739 33.748L88.1979 18.572H91.7539L96.0939 30.332L100.602 18.572H103.906Z" fill="#101828"/>
<path d="M120.455 25.908C120.455 26.4867 120.417 27.0094 120.343 27.476H108.555C108.648 28.708 109.105 29.6974 109.927 30.444C110.748 31.1907 111.756 31.564 112.951 31.564C114.668 31.564 115.881 30.8454 116.591 29.408H120.035C119.568 30.8267 118.719 31.9934 117.487 32.908C116.273 33.804 114.761 34.252 112.951 34.252C111.476 34.252 110.151 33.9254 108.975 33.272C107.817 32.6 106.903 31.6667 106.231 30.472C105.577 29.2587 105.251 27.8587 105.251 26.272C105.251 24.6854 105.568 23.2947 106.203 22.1C106.856 20.8867 107.761 19.9534 108.919 19.3C110.095 18.6467 111.439 18.32 112.951 18.32C114.407 18.32 115.704 18.6374 116.843 19.272C117.981 19.9067 118.868 20.8027 119.503 21.96C120.137 23.0987 120.455 24.4147 120.455 25.908ZM117.123 24.9C117.104 23.724 116.684 22.7814 115.863 22.072C115.041 21.3627 114.024 21.008 112.811 21.008C111.709 21.008 110.767 21.3627 109.983 22.072C109.199 22.7627 108.732 23.7054 108.583 24.9H117.123Z" fill="#101828"/>
<path d="M126.788 20.812C127.255 20.028 127.871 19.4214 128.636 18.992C129.42 18.544 130.344 18.32 131.408 18.32V21.624H130.596C129.345 21.624 128.393 21.9414 127.74 22.576C127.105 23.2107 126.788 24.312 126.788 25.88V34H123.596V18.572H126.788V20.812Z" fill="#101828"/>
<path d="M139.942 34.252C138.729 34.252 137.637 34.0374 136.666 33.608C135.714 33.16 134.958 32.5627 134.398 31.816C133.838 31.0507 133.539 30.2014 133.502 29.268H136.806C136.862 29.9214 137.17 30.472 137.73 30.92C138.309 31.3494 139.027 31.564 139.886 31.564C140.782 31.564 141.473 31.396 141.958 31.06C142.462 30.7054 142.714 30.2574 142.714 29.716C142.714 29.1374 142.434 28.708 141.874 28.428C141.333 28.148 140.465 27.84 139.27 27.504C138.113 27.1867 137.17 26.8787 136.442 26.58C135.714 26.2814 135.079 25.824 134.538 25.208C134.015 24.592 133.754 23.78 133.754 22.772C133.754 21.9507 133.997 21.204 134.482 20.532C134.967 19.8414 135.658 19.3 136.554 18.908C137.469 18.516 138.514 18.32 139.69 18.32C141.445 18.32 142.854 18.768 143.918 19.664C145.001 20.5414 145.579 21.7454 145.654 23.276H142.462C142.406 22.5854 142.126 22.0347 141.622 21.624C141.118 21.2134 140.437 21.008 139.578 21.008C138.738 21.008 138.094 21.1667 137.646 21.484C137.198 21.8014 136.974 22.2214 136.974 22.744C136.974 23.1547 137.123 23.5 137.422 23.78C137.721 24.06 138.085 24.284 138.514 24.452C138.943 24.6014 139.578 24.7974 140.418 25.04C141.538 25.3387 142.453 25.6467 143.162 25.964C143.89 26.2627 144.515 26.7107 145.038 27.308C145.561 27.9054 145.831 28.6987 145.85 29.688C145.85 30.5654 145.607 31.3494 145.122 32.04C144.637 32.7307 143.946 33.272 143.05 33.664C142.173 34.056 141.137 34.252 139.942 34.252Z" fill="#101828"/>
</g>
</svg>
