<svg width="34" height="34" viewBox="0 0 34 34" fill="none" xmlns="http://www.w3.org/2000/svg">
<path d="M31.5477 13.1057H2.45232C1.07386 13.1057 0.483088 11.5888 1.56616 10.8676L16.1139 1.24379C16.3824 1.08417 16.6884 1 17 1C17.3116 1 17.6176 1.08417 17.8862 1.24379L32.4339 10.8676C33.5169 11.5888 32.9262 13.1057 31.5477 13.1057Z" stroke="#212121" stroke-linecap="round" stroke-linejoin="round"/>
<path d="M31.7692 26.783H2.23077C1.55103 26.783 1 27.3397 1 28.0264V31.7566C1 32.4433 1.55103 33 2.23077 33H31.7692C32.449 33 33 32.4433 33 31.7566V28.0264C33 27.3397 32.449 26.783 31.7692 26.783Z" stroke="#212121" stroke-linecap="round" stroke-linejoin="round"/>
<path d="M4.69226 13.1057V26.783" stroke="#212121" stroke-linecap="round" stroke-linejoin="round"/>
<path d="M10.8462 13.1057V26.783" stroke="#212121" stroke-linecap="round" stroke-linejoin="round"/>
<path d="M17 13.1057V26.783" stroke="#212121" stroke-linecap="round" stroke-linejoin="round"/>
<path d="M23.1538 13.1057V26.783" stroke="#212121" stroke-linecap="round" stroke-linejoin="round"/>
<path d="M29.3077 13.1057V26.783" stroke="#212121" stroke-linecap="round" stroke-linejoin="round"/>
</svg>
