<svg width="32" height="32" viewBox="0 0 32 32" fill="none" xmlns="http://www.w3.org/2000/svg">
<path d="M8.34091 8.34084L12.9342 12.9342M19.0659 19.0658L23.6592 23.6592M23.6592 8.34084L19.0659 12.9342L22.8901 9.11M8.34091 23.6592L12.9342 19.0658M26.8334 16C26.8334 21.9831 21.9832 26.8333 16.0001 26.8333C10.017 26.8333 5.16675 21.9831 5.16675 16C5.16675 10.0169 10.017 5.16667 16.0001 5.16667C21.9832 5.16667 26.8334 10.0169 26.8334 16ZM20.3334 16C20.3334 18.3932 18.3933 20.3333 16.0001 20.3333C13.6068 20.3333 11.6667 18.3932 11.6667 16C11.6667 13.6068 13.6068 11.6667 16.0001 11.6667C18.3933 11.6667 20.3334 13.6068 20.3334 16Z" stroke="#212121" stroke-width="1.5" stroke-linecap="round" stroke-linejoin="round"/>
</svg>
