<svg width="11" height="17" viewBox="0 0 11 17" fill="none" xmlns="http://www.w3.org/2000/svg">
<path d="M1.71849 14.3427C2.1799 14.885 2.76062 15.3155 3.41612 15.6011C4.07162 15.8867 4.78448 16.0198 5.5 15.9903C6.59364 16.0641 7.67358 15.7152 8.51279 15.0169C9.352 14.3185 9.88509 13.3252 10 12.2458C9.88509 11.1663 9.352 10.173 8.51279 9.47469C7.67358 8.77637 6.59364 8.42745 5.5 8.50127C4.40636 8.57509 3.32642 8.22616 2.48721 7.52785C1.64801 6.82953 1.11491 5.83623 1 4.75676C1.10568 3.67351 1.6362 2.67451 2.47761 1.97436C3.31902 1.27421 4.40419 0.928776 5.5 1.01225C6.20293 0.969672 6.90665 1.08191 7.56052 1.3409C8.21439 1.59989 8.80216 1.99919 9.28151 2.51006" stroke="#212121" stroke-width="1.5" stroke-linecap="round" stroke-linejoin="round"/>
</svg>
