<svg width="50" height="50" viewBox="0 0 50 50" fill="none" xmlns="http://www.w3.org/2000/svg">
<rect x="1" y="1" width="48" height="48" rx="24" fill="#212121"/>
<path d="M24.9988 21V25M24.9988 29H25.0088M23.2888 15.86L14.8188 30C14.6442 30.3024 14.5518 30.6453 14.5508 30.9945C14.5498 31.3437 14.6403 31.6871 14.8132 31.9905C14.9862 32.2939 15.2355 32.5467 15.5365 32.7238C15.8375 32.9009 16.1796 32.9961 16.5288 33H33.4688C33.818 32.9961 34.1601 32.9009 34.4611 32.7238C34.7621 32.5467 35.0114 32.2939 35.1844 31.9905C35.3573 31.6871 35.4478 31.3437 35.4468 30.9945C35.4458 30.6453 35.3534 30.3024 35.1788 30L26.7088 15.86C26.5305 15.5661 26.2795 15.3231 25.98 15.1544C25.6805 14.9858 25.3425 14.8972 24.9988 14.8972C24.6551 14.8972 24.3171 14.9858 24.0176 15.1544C23.7181 15.3231 23.4671 15.5661 23.2888 15.86Z" stroke="#E8AA42" stroke-width="2" stroke-linecap="round" stroke-linejoin="round"/>
<rect x="1" y="1" width="48" height="48" rx="24" stroke="#E4E7EC"/>
</svg>
