<svg width="24" height="24" viewBox="0 0 24 24" fill="none" xmlns="http://www.w3.org/2000/svg">
<g clip-path="url(#clip0_695_24777)">
<path d="M22.6 0.727295L13.5938 7.79515L15.2685 3.62983L22.6 0.727295Z" fill="#E17726" stroke="#E17726" stroke-width="0.25" stroke-linecap="round" stroke-linejoin="round"/>
<path d="M1.82617 0.727295L10.7522 7.86111L9.15766 3.62983L1.82617 0.727295Z" fill="#E27625" stroke="#E27625" stroke-width="0.25" stroke-linecap="round" stroke-linejoin="round"/>
<path d="M19.3572 17.1152L16.9609 20.9979L22.0921 22.4963L23.562 17.2001L19.3572 17.1152Z" fill="#E27625" stroke="#E27625" stroke-width="0.25" stroke-linecap="round" stroke-linejoin="round"/>
<path d="M0.873047 17.2001L2.33399 22.4963L7.45624 20.9979L5.06882 17.1152L0.873047 17.2001Z" fill="#E27625" stroke="#E27625" stroke-width="0.25" stroke-linecap="round" stroke-linejoin="round"/>
<path d="M7.18017 10.5563L5.75488 12.8369L10.8326 13.0819L10.6633 7.28625L7.18017 10.5563Z" fill="#E27625" stroke="#E27625" stroke-width="0.25" stroke-linecap="round" stroke-linejoin="round"/>
<path d="M17.2461 10.5564L13.7096 7.22034L13.5938 13.082L18.6714 12.8369L17.2461 10.5564Z" fill="#E27625" stroke="#E27625" stroke-width="0.25" stroke-linecap="round" stroke-linejoin="round"/>
<path d="M7.45605 20.9979L10.5294 19.4241L7.88367 17.2378L7.45605 20.9979Z" fill="#E27625" stroke="#E27625" stroke-width="0.25" stroke-linecap="round" stroke-linejoin="round"/>
<path d="M13.8965 19.4241L16.9609 20.9979L16.5422 17.2378L13.8965 19.4241Z" fill="#E27625" stroke="#E27625" stroke-width="0.25" stroke-linecap="round" stroke-linejoin="round"/>
<path d="M16.9609 20.9979L13.8965 19.4242L14.1459 21.5351L14.1191 22.4304L16.9609 20.9979Z" fill="#D5BFB2" stroke="#D5BFB2" stroke-width="0.25" stroke-linecap="round" stroke-linejoin="round"/>
<path d="M7.45605 20.9979L10.3067 22.4304L10.2889 21.5351L10.5294 19.4242L7.45605 20.9979Z" fill="#D5BFB2" stroke="#D5BFB2" stroke-width="0.25" stroke-linecap="round" stroke-linejoin="round"/>
<path d="M10.3603 15.843L7.8125 15.0515L9.61195 14.175L10.3603 15.843Z" fill="#233447" stroke="#233447" stroke-width="0.25" stroke-linecap="round" stroke-linejoin="round"/>
<path d="M14.0654 15.843L14.8138 14.175L16.6221 15.0515L14.0654 15.843Z" fill="#233447" stroke="#233447" stroke-width="0.25" stroke-linecap="round" stroke-linejoin="round"/>
<path d="M7.45574 20.9979L7.90118 17.1152L5.06836 17.2001L7.45574 20.9979Z" fill="#CC6228" stroke="#CC6228" stroke-width="0.25" stroke-linecap="round" stroke-linejoin="round"/>
<path d="M16.5244 17.1152L16.9609 20.9979L19.3572 17.2001L16.5244 17.1152Z" fill="#CC6228" stroke="#CC6228" stroke-width="0.25" stroke-linecap="round" stroke-linejoin="round"/>
<path d="M18.6714 12.8368L13.5938 13.0818L14.0659 15.843L14.8142 14.175L16.6226 15.0514L18.6714 12.8368Z" fill="#CC6228" stroke="#CC6228" stroke-width="0.25" stroke-linecap="round" stroke-linejoin="round"/>
<path d="M7.81268 15.0514L9.61213 14.175L10.3604 15.843L10.8326 13.0818L5.75488 12.8368L7.81268 15.0514Z" fill="#CC6228" stroke="#CC6228" stroke-width="0.25" stroke-linecap="round" stroke-linejoin="round"/>
<path d="M5.75488 12.8368L7.88396 17.2377L7.81265 15.0514L5.75488 12.8368Z" fill="#E27525" stroke="#E27525" stroke-width="0.25" stroke-linecap="round" stroke-linejoin="round"/>
<path d="M16.6222 15.0514L16.542 17.2377L18.6711 12.8368L16.6222 15.0514Z" fill="#E27525" stroke="#E27525" stroke-width="0.25" stroke-linecap="round" stroke-linejoin="round"/>
<path d="M10.8325 13.0818L10.3604 15.843L10.9572 19.1036L11.0908 14.8064L10.8325 13.0818Z" fill="#E27525" stroke="#E27525" stroke-width="0.25" stroke-linecap="round" stroke-linejoin="round"/>
<path d="M13.5942 13.0818L13.3447 14.797L13.4695 19.1036L14.0663 15.843L13.5942 13.0818Z" fill="#E27525" stroke="#E27525" stroke-width="0.25" stroke-linecap="round" stroke-linejoin="round"/>
<path d="M14.0656 15.8431L13.4688 19.1037L13.8964 19.4242L16.5421 17.2378L16.6223 15.0515L14.0656 15.8431Z" fill="#F5841F" stroke="#F5841F" stroke-width="0.25" stroke-linecap="round" stroke-linejoin="round"/>
<path d="M7.8125 15.0515L7.88381 17.2378L10.5295 19.4242L10.9571 19.1037L10.3603 15.8431L7.8125 15.0515Z" fill="#F5841F" stroke="#F5841F" stroke-width="0.25" stroke-linecap="round" stroke-linejoin="round"/>
<path d="M14.1194 22.4304L14.1461 21.5351L13.9145 21.3277H10.5116L10.2889 21.5351L10.3067 22.4304L7.45605 20.9979L8.45377 21.8649L10.4759 23.3445H13.9412L15.9723 21.8649L16.9611 20.9979L14.1194 22.4304Z" fill="#C0AC9D" stroke="#C0AC9D" stroke-width="0.25" stroke-linecap="round" stroke-linejoin="round"/>
<path d="M13.8969 19.4241L13.4693 19.1038H10.9572L10.5296 19.4241L10.2891 21.5351L10.5118 21.3278H13.9147L14.1463 21.5351L13.8969 19.4241Z" fill="#161616" stroke="#161616" stroke-width="0.25" stroke-linecap="round" stroke-linejoin="round"/>
<path d="M22.9828 8.25689L23.7401 4.35546L22.5998 0.727295L13.8965 7.55959L17.2459 10.5563L21.9762 12.017L23.0185 10.726L22.5642 10.3773L23.2857 9.67995L22.7334 9.22758L23.455 8.64329L22.9828 8.25689Z" fill="#763E1A" stroke="#763E1A" stroke-width="0.25" stroke-linecap="round" stroke-linejoin="round"/>
<path d="M0.685547 4.35546L1.45165 8.25689L0.961705 8.64329L1.69218 9.22758L1.13987 9.67995L1.86143 10.3773L1.40711 10.726L2.44938 12.017L7.17967 10.5563L10.5291 7.55959L1.8258 0.727295L0.685547 4.35546Z" fill="#763E1A" stroke="#763E1A" stroke-width="0.25" stroke-linecap="round" stroke-linejoin="round"/>
<path d="M21.976 12.0169L17.2457 10.5563L18.6711 12.8369L16.542 17.2377L19.357 17.2001H23.5617L21.976 12.0169Z" fill="#F5841F" stroke="#F5841F" stroke-width="0.25" stroke-linecap="round" stroke-linejoin="round"/>
<path d="M7.18003 10.5563L2.4498 12.0169L0.873047 17.2001H5.06882L7.88378 17.2377L5.75475 12.8369L7.18003 10.5563Z" fill="#F5841F" stroke="#F5841F" stroke-width="0.25" stroke-linecap="round" stroke-linejoin="round"/>
<path d="M13.5935 13.0819L13.8964 7.55946L15.2682 3.62976H9.15723L10.5291 7.55946L10.8319 13.0819L10.9478 14.8158L10.9567 19.1037H13.4688L13.4777 14.8158L13.5935 13.0819Z" fill="#F5841F" stroke="#F5841F" stroke-width="0.25" stroke-linecap="round" stroke-linejoin="round"/>
</g>
<defs>
<clipPath id="clip0_695_24777">
<rect width="24" height="24" fill="white"/>
</clipPath>
</defs>
</svg>
