<svg width="24" height="15" viewBox="0 0 24 15" fill="none" xmlns="http://www.w3.org/2000/svg">
<g clip-path="url(#clip0_695_24821)">
<path d="M4.91641 2.87303C8.82972 -0.959791 15.1765 -0.959791 19.0898 2.87303L19.5604 3.33123C19.7585 3.52318 19.7585 3.83278 19.5604 4.02473L17.9505 5.60368C17.8514 5.69656 17.6966 5.69656 17.5975 5.60368L16.9474 4.96591C14.2167 2.29098 9.78947 2.29098 7.05882 4.96591L6.36533 5.64702C6.26625 5.7399 6.11146 5.7399 6.01238 5.64702L4.39629 4.07426C4.19814 3.88231 4.19814 3.57272 4.39629 3.38077L4.91641 2.87303ZM22.4211 6.13618L23.8576 7.54176C24.0557 7.73371 24.0557 8.0433 23.8576 8.23525L17.387 14.5696C17.1889 14.7616 16.8731 14.7616 16.6811 14.5696L12.0929 10.0743C12.0433 10.0247 11.9628 10.0247 11.9133 10.0743L7.32508 14.5696C7.12694 14.7616 6.81115 14.7616 6.6192 14.5696L0.148607 8.23525C-0.0495356 8.0433 -0.0495356 7.73371 0.148607 7.54176L1.58514 6.13618C1.78328 5.94423 2.09907 5.94423 2.29102 6.13618L6.87926 10.6315C6.92879 10.6811 7.00929 10.6811 7.05882 10.6315L11.6471 6.13618C11.8452 5.94423 12.161 5.94423 12.3529 6.13618L16.9412 10.6315C16.9907 10.6811 17.0712 10.6811 17.1207 10.6315L21.709 6.13618C21.9071 5.94423 22.2229 5.94423 22.4211 6.13618Z" fill="#3B99FC"/>
</g>
<defs>
<clipPath id="clip0_695_24821">
<rect width="24" height="14.7121" fill="white"/>
</clipPath>
</defs>
</svg>
